<svg width="40" height="37" viewBox="0 0 40 37" fill="none" xmlns="http://www.w3.org/2000/svg">
<path d="M17.8662 0.599808L15.4148 5.99758C14.9245 6.13366 14.4832 6.36045 14.042 6.58725L8.20758 4.31928L4.67753 7.58516L7.12895 12.9829C6.88381 13.4365 6.6877 13.7994 6.49158 14.253L0.657196 16.521V21.0569L6.49158 23.3249C6.6877 23.7785 6.88381 24.1413 7.12895 24.5949L4.67753 29.9927L8.20758 33.2586L14.042 30.9906C14.4832 31.172 14.9245 31.3988 15.4148 31.5803L17.8662 36.9781H22.769L25.2205 31.5803C25.6617 31.3988 26.152 31.2174 26.5933 30.9906L32.4276 33.2586L35.9577 29.9927L33.5063 24.5949C33.7024 24.1867 33.9475 23.7331 34.1436 23.3249L39.978 21.0569V16.521L34.1436 14.253C33.9966 13.8448 33.7514 13.3912 33.5063 12.9829L35.9577 7.58516L32.4276 4.31928L26.5933 6.58725C26.152 6.40581 25.6617 6.17901 25.2205 5.99758L22.769 0.599808L17.8662 0.599808ZM20.3176 11.9397C24.387 11.9397 27.6719 14.9787 27.6719 18.7436C27.6719 22.5084 24.387 25.5475 20.3176 25.5475C16.2483 25.5475 12.9633 22.5084 12.9633 18.7436C12.9633 14.9787 16.2483 11.9397 20.3176 11.9397Z" fill="#D7D7D9"/>
</svg>
